@startuml
'https://plantuml.com/class-diagram

abstract class DataConvertor {
    +readFile(): void
}

class TXTDataConvertor {
    +readFile(): void
}

class ExcelDataConvertor {
    +readFile(): void
}

class CustomerDAO {
    +addCustomers(): void
}

DataConvertor <|-- TXTDataConvertor
DataConvertor <|-- ExcelDataConvertor
DataConvertor <.. CustomerDAO

@enduml