@startuml
'https://plantuml.com/class-diagram

interface Factory {
    +createProductA(): ProductA
    +createProductB(): ProductB
}
class ConcreteFactory1 {
    +createProductA(): ProductA
    +createProductB(): ProductB
}
class ConcreteFactory2{
    +createProductA(): ProductA
    +createProductB(): ProductB
}
Factory <|-- ConcreteFactory1
Factory <|-- ConcreteFactory2


interface ProductA
class ConcreteProductA1
class ConcreteProductA2
ProductA <|-- ConcreteProductA1
ProductA <|-- ConcreteProductA2

interface ProductB
class ConcreteProductB1
class ConcreteProductB2
ProductB <|-- ConcreteProductB1
ProductB <|-- ConcreteProductB2

ConcreteProductA1 <.. ConcreteFactory1
ConcreteProductB1 <.. ConcreteFactory1

ConcreteProductA2 <.. ConcreteFactory2
ConcreteProductB2 <.. ConcreteFactory2

@enduml